<mxfile host="Electron" modified="2023-05-23T14:57:41.657Z" agent="Mozilla/5.0 (Windows NT 10.0; Win64; x64) AppleWebKit/537.36 (KHTML, like Gecko) draw.io/21.2.8 Chrome/112.0.5615.165 Electron/24.2.0 Safari/537.36" etag="3Y1AeZtnVT-W--7Z85PK" version="21.2.8" type="device">
  <diagram name="Page-1" id="-yQEPXlO2FQk3VNVWpFE">
    <mxGraphModel dx="1480" dy="877" grid="1" gridSize="10" guides="1" tooltips="1" connect="1" arrows="1" fold="1" page="1" pageScale="1" pageWidth="850" pageHeight="1100" math="0" shadow="0">
      <root>
        <mxCell id="0" />
        <mxCell id="1" parent="0" />
        <mxCell id="ty8Oa_61YEUr2Q36sO8U-11" value="&amp;nbsp;" style="html=1;whiteSpace=wrap;fillColor=none;strokeColor=none;" parent="1" vertex="1">
          <mxGeometry x="80" y="200" width="80" height="120" as="geometry" />
        </mxCell>
        <mxCell id="ty8Oa_61YEUr2Q36sO8U-4" value="Swagger UI" style="html=1;whiteSpace=wrap;rounded=1;strokeWidth=2;fontStyle=1;verticalAlign=top;" parent="1" vertex="1">
          <mxGeometry x="180" y="40" width="360" height="430" as="geometry" />
        </mxCell>
        <mxCell id="ty8Oa_61YEUr2Q36sO8U-1" value="Администратор" style="shape=umlActor;verticalLabelPosition=bottom;verticalAlign=top;html=1;fontStyle=0;strokeWidth=2;" parent="1" vertex="1">
          <mxGeometry x="105" y="230" width="30" height="60" as="geometry" />
        </mxCell>
        <mxCell id="ty8Oa_61YEUr2Q36sO8U-2" value="Мобильное приложение" style="html=1;whiteSpace=wrap;rounded=1;strokeWidth=2;fontStyle=1;verticalAlign=top;" parent="1" vertex="1">
          <mxGeometry x="670" y="162.5" width="200" height="190" as="geometry" />
        </mxCell>
        <mxCell id="ty8Oa_61YEUr2Q36sO8U-3" value="Создание бренда" style="ellipse;whiteSpace=wrap;html=1;strokeWidth=2;fontStyle=1" parent="1" vertex="1">
          <mxGeometry x="210" y="70" width="140" height="70" as="geometry" />
        </mxCell>
        <mxCell id="ty8Oa_61YEUr2Q36sO8U-5" value="Просмотр списка брендов" style="ellipse;whiteSpace=wrap;html=1;strokeWidth=2;fontStyle=1" parent="1" vertex="1">
          <mxGeometry x="370" y="120" width="140" height="70" as="geometry" />
        </mxCell>
        <mxCell id="ty8Oa_61YEUr2Q36sO8U-6" value="Просмотр списка брендов" style="ellipse;whiteSpace=wrap;html=1;strokeWidth=2;fontStyle=1" parent="1" vertex="1">
          <mxGeometry x="700" y="192.5" width="140" height="70" as="geometry" />
        </mxCell>
        <mxCell id="ty8Oa_61YEUr2Q36sO8U-7" value="Просмотр&lt;br&gt;бренда&lt;br&gt;по id" style="ellipse;whiteSpace=wrap;html=1;strokeWidth=2;fontStyle=1" parent="1" vertex="1">
          <mxGeometry x="370" y="230" width="140" height="70" as="geometry" />
        </mxCell>
        <mxCell id="ty8Oa_61YEUr2Q36sO8U-8" value="Просмотр&lt;br style=&quot;border-color: var(--border-color);&quot;&gt;бренда&lt;br style=&quot;border-color: var(--border-color);&quot;&gt;по urlSegment" style="ellipse;whiteSpace=wrap;html=1;strokeWidth=2;fontStyle=1" parent="1" vertex="1">
          <mxGeometry x="700" y="272.5" width="140" height="70" as="geometry" />
        </mxCell>
        <mxCell id="ty8Oa_61YEUr2Q36sO8U-9" value="Обновление&lt;br&gt;бренда&lt;br&gt;по id" style="ellipse;whiteSpace=wrap;html=1;strokeWidth=2;fontStyle=1" parent="1" vertex="1">
          <mxGeometry x="210" y="310" width="140" height="70" as="geometry" />
        </mxCell>
        <mxCell id="ty8Oa_61YEUr2Q36sO8U-10" value="Удаление&lt;br&gt;бренда&lt;br&gt;по id" style="ellipse;whiteSpace=wrap;html=1;strokeWidth=2;fontStyle=1" parent="1" vertex="1">
          <mxGeometry x="210" y="390" width="140" height="70" as="geometry" />
        </mxCell>
        <mxCell id="ty8Oa_61YEUr2Q36sO8U-21" style="rounded=0;orthogonalLoop=1;jettySize=auto;html=1;exitX=1;exitY=0.5;exitDx=0;exitDy=0;entryX=0;entryY=0.5;entryDx=0;entryDy=0;strokeWidth=2;" parent="1" source="ty8Oa_61YEUr2Q36sO8U-13" target="ty8Oa_61YEUr2Q36sO8U-6" edge="1">
          <mxGeometry relative="1" as="geometry" />
        </mxCell>
        <mxCell id="ty8Oa_61YEUr2Q36sO8U-22" style="rounded=0;orthogonalLoop=1;jettySize=auto;html=1;exitX=1;exitY=0.5;exitDx=0;exitDy=0;entryX=0;entryY=0.5;entryDx=0;entryDy=0;strokeWidth=2;" parent="1" source="ty8Oa_61YEUr2Q36sO8U-13" target="ty8Oa_61YEUr2Q36sO8U-8" edge="1">
          <mxGeometry relative="1" as="geometry" />
        </mxCell>
        <mxCell id="REcLVF87L03XbqfMP4DB-6" style="rounded=0;orthogonalLoop=1;jettySize=auto;html=1;exitX=0;exitY=0.5;exitDx=0;exitDy=0;entryX=1;entryY=0.5;entryDx=0;entryDy=0;strokeWidth=2;" parent="1" source="ty8Oa_61YEUr2Q36sO8U-13" target="ty8Oa_61YEUr2Q36sO8U-5" edge="1">
          <mxGeometry relative="1" as="geometry">
            <mxPoint x="560" y="152.5" as="targetPoint" />
          </mxGeometry>
        </mxCell>
        <mxCell id="REcLVF87L03XbqfMP4DB-7" style="rounded=0;orthogonalLoop=1;jettySize=auto;html=1;exitX=0;exitY=0.5;exitDx=0;exitDy=0;entryX=1;entryY=0.5;entryDx=0;entryDy=0;strokeWidth=2;" parent="1" source="ty8Oa_61YEUr2Q36sO8U-13" target="ty8Oa_61YEUr2Q36sO8U-7" edge="1">
          <mxGeometry relative="1" as="geometry">
            <mxPoint x="560" y="262.5" as="targetPoint" />
          </mxGeometry>
        </mxCell>
        <mxCell id="REcLVF87L03XbqfMP4DB-8" style="rounded=0;orthogonalLoop=1;jettySize=auto;html=1;exitX=0;exitY=0.5;exitDx=0;exitDy=0;entryX=1;entryY=0.5;entryDx=0;entryDy=0;strokeWidth=2;" parent="1" source="ty8Oa_61YEUr2Q36sO8U-13" target="REcLVF87L03XbqfMP4DB-2" edge="1">
          <mxGeometry relative="1" as="geometry">
            <mxPoint x="560" y="377.5" as="targetPoint" />
          </mxGeometry>
        </mxCell>
        <mxCell id="ty8Oa_61YEUr2Q36sO8U-13" value="&amp;nbsp;" style="html=1;whiteSpace=wrap;strokeColor=none;fillColor=none;" parent="1" vertex="1">
          <mxGeometry x="570" y="197.5" width="80" height="120" as="geometry" />
        </mxCell>
        <mxCell id="ty8Oa_61YEUr2Q36sO8U-14" value="Любой&lt;br&gt;пользователь" style="shape=umlActor;verticalLabelPosition=bottom;verticalAlign=top;html=1;fontStyle=0;strokeWidth=2;" parent="1" vertex="1">
          <mxGeometry x="595" y="227.5" width="30" height="60" as="geometry" />
        </mxCell>
        <mxCell id="ty8Oa_61YEUr2Q36sO8U-20" style="rounded=0;orthogonalLoop=1;jettySize=auto;html=1;exitX=1;exitY=0.5;exitDx=0;exitDy=0;entryX=0;entryY=0.5;entryDx=0;entryDy=0;strokeWidth=2;" parent="1" source="ty8Oa_61YEUr2Q36sO8U-11" target="ty8Oa_61YEUr2Q36sO8U-10" edge="1">
          <mxGeometry relative="1" as="geometry" />
        </mxCell>
        <mxCell id="REcLVF87L03XbqfMP4DB-1" value="Создание&lt;br&gt;несколько брендов&lt;br&gt;за раз" style="ellipse;whiteSpace=wrap;html=1;strokeWidth=2;fontStyle=1" parent="1" vertex="1">
          <mxGeometry x="210" y="150" width="140" height="70" as="geometry" />
        </mxCell>
        <mxCell id="REcLVF87L03XbqfMP4DB-2" value="Просмотр&lt;br&gt;бренда&lt;br&gt;по urlSegment" style="ellipse;whiteSpace=wrap;html=1;strokeWidth=2;fontStyle=1" parent="1" vertex="1">
          <mxGeometry x="370" y="345" width="140" height="70" as="geometry" />
        </mxCell>
        <mxCell id="REcLVF87L03XbqfMP4DB-3" value="Обновление&lt;br&gt;несколько брендов&lt;br&gt;за раз" style="ellipse;whiteSpace=wrap;html=1;strokeWidth=2;fontStyle=1" parent="1" vertex="1">
          <mxGeometry x="210" y="230" width="140" height="70" as="geometry" />
        </mxCell>
        <mxCell id="REcLVF87L03XbqfMP4DB-4" style="rounded=0;orthogonalLoop=1;jettySize=auto;html=1;exitX=1;exitY=0.5;exitDx=0;exitDy=0;entryX=0;entryY=0.5;entryDx=0;entryDy=0;strokeWidth=2;" parent="1" source="ty8Oa_61YEUr2Q36sO8U-11" target="REcLVF87L03XbqfMP4DB-1" edge="1">
          <mxGeometry relative="1" as="geometry" />
        </mxCell>
        <mxCell id="REcLVF87L03XbqfMP4DB-5" style="rounded=0;orthogonalLoop=1;jettySize=auto;html=1;exitX=1;exitY=0.5;exitDx=0;exitDy=0;entryX=0;entryY=0.5;entryDx=0;entryDy=0;strokeWidth=2;" parent="1" source="ty8Oa_61YEUr2Q36sO8U-11" target="REcLVF87L03XbqfMP4DB-3" edge="1">
          <mxGeometry relative="1" as="geometry" />
        </mxCell>
        <mxCell id="ty8Oa_61YEUr2Q36sO8U-16" style="rounded=0;orthogonalLoop=1;jettySize=auto;html=1;exitX=1;exitY=0.5;exitDx=0;exitDy=0;entryX=0;entryY=0.5;entryDx=0;entryDy=0;strokeWidth=2;" parent="1" source="ty8Oa_61YEUr2Q36sO8U-11" target="ty8Oa_61YEUr2Q36sO8U-3" edge="1">
          <mxGeometry relative="1" as="geometry" />
        </mxCell>
        <mxCell id="ty8Oa_61YEUr2Q36sO8U-19" style="rounded=0;orthogonalLoop=1;jettySize=auto;html=1;exitX=1;exitY=0.5;exitDx=0;exitDy=0;entryX=0;entryY=0.5;entryDx=0;entryDy=0;strokeWidth=2;" parent="1" source="ty8Oa_61YEUr2Q36sO8U-11" target="ty8Oa_61YEUr2Q36sO8U-9" edge="1">
          <mxGeometry relative="1" as="geometry" />
        </mxCell>
      </root>
    </mxGraphModel>
  </diagram>
</mxfile>
